<mxfile host="app.diagrams.net" modified="2022-08-12T18:10:46.342Z" agent="5.0 (Windows NT 10.0; WOW64) AppleWebKit/537.36 (KHTML, like Gecko) Chrome/104.0.0.0 Safari/537.36" etag="BHmTnGcvcwMui_MihqqL" version="15.0.4" type="github">
  <diagram id="IkNDRoGFcRdz62NbaU44" name="Page-1">
    <mxGraphModel dx="782" dy="436" grid="1" gridSize="10" guides="1" tooltips="1" connect="1" arrows="1" fold="1" page="1" pageScale="1" pageWidth="827" pageHeight="1169" math="0" shadow="0">
      <root>
        <mxCell id="0" />
        <mxCell id="1" parent="0" />
        <mxCell id="7eYlXIcCetGepH7rAsW7-13" value="" style="edgeStyle=orthogonalEdgeStyle;rounded=0;orthogonalLoop=1;jettySize=auto;html=1;" parent="1" source="7eYlXIcCetGepH7rAsW7-2" target="7eYlXIcCetGepH7rAsW7-12" edge="1">
          <mxGeometry relative="1" as="geometry" />
        </mxCell>
        <mxCell id="7eYlXIcCetGepH7rAsW7-2" value="PCF program printer" style="rounded=0;whiteSpace=wrap;html=1;" parent="1" vertex="1">
          <mxGeometry x="310" y="280" width="120" height="60" as="geometry" />
        </mxCell>
        <mxCell id="7eYlXIcCetGepH7rAsW7-5" value="" style="edgeStyle=orthogonalEdgeStyle;rounded=0;orthogonalLoop=1;jettySize=auto;html=1;" parent="1" source="7eYlXIcCetGepH7rAsW7-3" target="7eYlXIcCetGepH7rAsW7-4" edge="1">
          <mxGeometry relative="1" as="geometry" />
        </mxCell>
        <mxCell id="7eYlXIcCetGepH7rAsW7-3" value="Lexer" style="rounded=0;whiteSpace=wrap;html=1;" parent="1" vertex="1">
          <mxGeometry x="310" y="90" width="120" height="60" as="geometry" />
        </mxCell>
        <mxCell id="7eYlXIcCetGepH7rAsW7-9" value="" style="edgeStyle=orthogonalEdgeStyle;rounded=0;orthogonalLoop=1;jettySize=auto;html=1;" parent="1" source="7eYlXIcCetGepH7rAsW7-4" edge="1">
          <mxGeometry relative="1" as="geometry">
            <mxPoint x="370" y="280" as="targetPoint" />
          </mxGeometry>
        </mxCell>
        <mxCell id="7eYlXIcCetGepH7rAsW7-4" value="Pcfyacc" style="whiteSpace=wrap;html=1;rounded=0;" parent="1" vertex="1">
          <mxGeometry x="310" y="190" width="120" height="60" as="geometry" />
        </mxCell>
        <mxCell id="7eYlXIcCetGepH7rAsW7-7" value="" style="edgeStyle=orthogonalEdgeStyle;rounded=0;orthogonalLoop=1;jettySize=auto;html=1;" parent="1" source="7eYlXIcCetGepH7rAsW7-6" target="7eYlXIcCetGepH7rAsW7-3" edge="1">
          <mxGeometry relative="1" as="geometry" />
        </mxCell>
        <mxCell id="7eYlXIcCetGepH7rAsW7-6" value="PCF 程序文本" style="text;html=1;strokeColor=none;fillColor=none;align=center;verticalAlign=middle;whiteSpace=wrap;rounded=0;" parent="1" vertex="1">
          <mxGeometry x="305" y="40" width="130" height="20" as="geometry" />
        </mxCell>
        <mxCell id="7eYlXIcCetGepH7rAsW7-8" value="Token Stream" style="text;html=1;strokeColor=none;fillColor=none;align=center;verticalAlign=middle;whiteSpace=wrap;rounded=0;" parent="1" vertex="1">
          <mxGeometry x="260" y="160" width="90" height="20" as="geometry" />
        </mxCell>
        <mxCell id="7eYlXIcCetGepH7rAsW7-11" value="&lt;span style=&quot;color: rgb(0, 0, 0); font-family: helvetica; font-size: 12px; font-style: normal; font-weight: 400; letter-spacing: normal; text-align: center; text-indent: 0px; text-transform: none; word-spacing: 0px; background-color: rgb(248, 249, 250); display: inline; float: none;&quot;&gt;PCF syntax in OCaml&lt;/span&gt;" style="text;whiteSpace=wrap;html=1;" parent="1" vertex="1">
          <mxGeometry x="210" y="250" width="160" height="30" as="geometry" />
        </mxCell>
        <mxCell id="7eYlXIcCetGepH7rAsW7-12" value="Append to top module and compile it" style="whiteSpace=wrap;html=1;rounded=0;" parent="1" vertex="1">
          <mxGeometry x="310" y="370" width="120" height="60" as="geometry" />
        </mxCell>
        <mxCell id="7eYlXIcCetGepH7rAsW7-14" value="String of Coq program piece" style="text;html=1;strokeColor=none;fillColor=none;align=center;verticalAlign=middle;whiteSpace=wrap;rounded=0;" parent="1" vertex="1">
          <mxGeometry x="170" y="340" width="190" height="20" as="geometry" />
        </mxCell>
        <mxCell id="7eYlXIcCetGepH7rAsW7-15" value="" style="shape=curlyBracket;whiteSpace=wrap;html=1;rounded=1;flipH=1;" parent="1" vertex="1">
          <mxGeometry x="450" y="120" width="30" height="270" as="geometry" />
        </mxCell>
        <mxCell id="7eYlXIcCetGepH7rAsW7-17" value="Parser" style="text;html=1;strokeColor=none;fillColor=none;align=center;verticalAlign=middle;whiteSpace=wrap;rounded=0;" parent="1" vertex="1">
          <mxGeometry x="490" y="245" width="40" height="20" as="geometry" />
        </mxCell>
        <mxCell id="7eYlXIcCetGepH7rAsW7-18" value="PCF Parser" style="text;strokeColor=none;fillColor=none;html=1;fontSize=24;fontStyle=1;verticalAlign=middle;align=center;" parent="1" vertex="1">
          <mxGeometry x="170" y="10" width="100" height="40" as="geometry" />
        </mxCell>
      </root>
    </mxGraphModel>
  </diagram>
</mxfile>
